<svg width="35" height="35" viewBox="0 0 35 35" fill="none" xmlns="http://www.w3.org/2000/svg">
<path d="M9.71909 10.4999C9.20356 10.4999 8.70914 10.6843 8.3446 11.0124C7.98007 11.3406 7.77527 11.7857 7.77527 12.2499C7.77527 12.714 7.98007 13.1591 8.3446 13.4873C8.70914 13.8155 9.20356 13.9998 9.71909 13.9998H11.6629C12.1784 13.9998 12.6729 13.8155 13.0374 13.4873C13.4019 13.1591 13.6067 12.714 13.6067 12.2499C13.6067 11.7857 13.4019 11.3406 13.0374 11.0124C12.6729 10.6843 12.1784 10.4999 11.6629 10.4999H9.71909ZM19.4382 31.4996H5.83146C5.31592 31.4996 4.82151 31.3153 4.45697 30.9871C4.09243 30.6589 3.88764 30.2138 3.88764 29.7497V5.24994C3.88764 4.78582 4.09243 4.3407 4.45697 4.01252C4.82151 3.68433 5.31592 3.49996 5.83146 3.49996H15.5505V8.7499C15.5505 10.1423 16.1649 11.4776 17.2585 12.4622C18.3521 13.4467 19.8354 13.9998 21.382 13.9998H27.2135V17.4998C27.2135 17.9639 27.4182 18.409 27.7828 18.7372C28.1473 19.0654 28.6417 19.2498 29.1573 19.2498C29.6728 19.2498 30.1672 19.0654 30.5318 18.7372C30.8963 18.409 31.1011 17.9639 31.1011 17.4998V12.2499C31.1011 12.2499 31.1011 12.2499 31.1011 12.1449C31.0808 11.9841 31.0418 11.8257 30.9845 11.6724V11.5149C30.891 11.3349 30.7663 11.1695 30.6151 11.0249L18.9522 0.524994C18.7915 0.388874 18.6078 0.276638 18.408 0.192498C18.3437 0.182364 18.2779 0.182364 18.2136 0.192498C18.0246 0.101504 17.8214 0.0366131 17.611 0H5.83146C4.28486 0 2.8016 0.553117 1.70799 1.53767C0.614384 2.52223 0 3.85757 0 5.24994V29.7497C0 31.142 0.614384 32.4774 1.70799 33.4619C2.8016 34.4465 4.28486 34.9996 5.83146 34.9996H19.4382C19.9537 34.9996 20.4481 34.8152 20.8127 34.487C21.1772 34.1589 21.382 33.7137 21.382 33.2496C21.382 32.7855 21.1772 32.3404 20.8127 32.0122C20.4481 31.684 19.9537 31.4996 19.4382 31.4996ZM19.4382 5.96743L24.4727 10.4999H21.382C20.8665 10.4999 20.3721 10.3155 20.0075 9.98732C19.643 9.65914 19.4382 9.21402 19.4382 8.7499V5.96743ZM21.382 17.4998H9.71909C9.20356 17.4998 8.70914 17.6842 8.3446 18.0124C7.98007 18.3405 7.77527 18.7857 7.77527 19.2498C7.77527 19.7139 7.98007 20.159 8.3446 20.4872C8.70914 20.8154 9.20356 20.9998 9.71909 20.9998H21.382C21.8975 20.9998 22.392 20.8154 22.7565 20.4872C23.121 20.159 23.3258 19.7139 23.3258 19.2498C23.3258 18.7857 23.121 18.3405 22.7565 18.0124C22.392 17.6842 21.8975 17.4998 21.382 17.4998ZM34.425 28.5072C34.2443 28.3431 34.0293 28.213 33.7925 28.1241C33.5556 28.0353 33.3015 27.9895 33.0449 27.9895C32.7883 27.9895 32.5342 28.0353 32.2974 28.1241C32.0605 28.213 31.8455 28.3431 31.6648 28.5072L31.1011 29.0322V24.4997C31.1011 24.0356 30.8963 23.5905 30.5318 23.2623C30.1672 22.9341 29.6728 22.7497 29.1573 22.7497C28.6417 22.7497 28.1473 22.9341 27.7828 23.2623C27.4182 23.5905 27.2135 24.0356 27.2135 24.4997V29.0322L26.6497 28.5072C26.2837 28.1776 25.7873 27.9925 25.2696 27.9925C24.752 27.9925 24.2556 28.1776 23.8895 28.5072C23.5235 28.8367 23.3179 29.2836 23.3179 29.7497C23.3179 30.2157 23.5235 30.6626 23.8895 30.9921L27.7772 34.4921C27.962 34.6514 28.18 34.7763 28.4186 34.8596C28.6513 34.9522 28.9029 35 29.1573 35C29.4117 35 29.6632 34.9522 29.8959 34.8596C30.1345 34.7763 30.3525 34.6514 30.5374 34.4921L34.425 30.9921C34.6072 30.8295 34.7518 30.6359 34.8505 30.4227C34.9492 30.2094 35 29.9807 35 29.7497C35 29.5186 34.9492 29.2899 34.8505 29.0767C34.7518 28.8634 34.6072 28.6699 34.425 28.5072ZM17.4944 27.9997C18.0099 27.9997 18.5043 27.8153 18.8689 27.4871C19.2334 27.1589 19.4382 26.7138 19.4382 26.2497C19.4382 25.7856 19.2334 25.3405 18.8689 25.0123C18.5043 24.6841 18.0099 24.4997 17.4944 24.4997H9.71909C9.20356 24.4997 8.70914 24.6841 8.3446 25.0123C7.98007 25.3405 7.77527 25.7856 7.77527 26.2497C7.77527 26.7138 7.98007 27.1589 8.3446 27.4871C8.70914 27.8153 9.20356 27.9997 9.71909 27.9997H17.4944Z" fill="#B8E1DD"/>
</svg>
